M48
;DRILL file {KiCad (2015-12-01 BZR 82, Git 6f5a49b)-brewed_product} date Thursday, 17 December 2015 'amt' 03:34:58
;FORMAT={-:-/ absolute / inch / decimal}
FMAT,2
INCH,TZ
T1C0.039
T2C0.040
T3C0.079
T4C0.087
%
G90
G05
M72
T1
X3.4846Y-2.3535
X3.5106Y-4.2028
X3.5831Y-2.3535
X3.6091Y-4.2028
X3.6815Y-2.3535
X3.7075Y-4.2028
X5.2161Y-3.3772
X5.2354Y-5.2252
X5.3146Y-3.3772
X5.3339Y-5.2252
X5.413Y-3.3772
X5.4323Y-5.2252
T2
X4.0354Y-2.3606
X4.0354Y-2.4606
X4.0354Y-2.5606
X4.1339Y-4.8213
X4.1339Y-4.9213
X4.1339Y-5.0213
X4.4291Y-2.5575
X4.4291Y-2.6575
X4.4291Y-2.7575
X4.8228Y-2.6543
X4.8228Y-2.7543
X4.8228Y-2.8543
X4.8228Y-2.9543
T3
X3.3917Y-3.4842
X3.6417Y-3.0512
T4
X3.4098Y-2.078
X3.4358Y-4.4783
X3.7563Y-2.078
X3.7823Y-4.4783
X5.1413Y-3.1016
X5.1606Y-5.5008
X5.4878Y-3.1016
X5.5071Y-5.5008
T0
M30
