%TF.GenerationSoftware,KiCad,Pcbnew,(2015-12-01 BZR 82, Git 6f5a49b)-brewed_product*%
%TF.CreationDate,2015-12-17T03:34:39-07:00*%
%TF.ProjectId,EMG Humbuckers,454D472048756D6275636B6572732E6B,rev?*%
%TF.FileFunction,Copper,L2,Bot,Signal*%
%FSLAX46Y46*%
G04 Gerber Fmt 4.6, Leading zero omitted, Abs format (unit mm)*
G04 Created by KiCad (PCBNEW (2015-12-01 BZR 82, Git 6f5a49b)-brewed_product) date Thursday, 17 December 2015 'amt' 03:34:39*
%MOMM*%
G01*
G04 APERTURE LIST*
%ADD10C,0.127000*%
%ADD11C,3.000000*%
%ADD12R,2.000000X1.600000*%
%ADD13R,2.032000X1.727200*%
%ADD14O,2.032000X1.727200*%
%ADD15C,1.500000*%
%ADD16C,2.200000*%
%ADD17C,0.762000*%
G04 APERTURE END LIST*
D10*
D11*
X92500000Y-77500000D03*
X86150000Y-88498523D03*
D12*
X91000000Y-65000000D03*
X95000000Y-65000000D03*
X93500000Y-100000000D03*
X97500000Y-100000000D03*
D13*
X102500000Y-65040000D03*
D14*
X102500000Y-62500000D03*
X102500000Y-59960000D03*
D13*
X112500000Y-70040000D03*
D14*
X112500000Y-67500000D03*
X112500000Y-64960000D03*
D13*
X105000000Y-122460000D03*
D14*
X105000000Y-125000000D03*
X105000000Y-127540000D03*
D15*
X137490000Y-85780000D03*
X134990000Y-85780000D03*
X132490000Y-85780000D03*
D16*
X139390000Y-78780000D03*
X130590000Y-78780000D03*
D15*
X93510000Y-59780000D03*
X91010000Y-59780000D03*
X88510000Y-59780000D03*
D16*
X95410000Y-52780000D03*
X86610000Y-52780000D03*
D15*
X132980000Y-132720000D03*
X135480000Y-132720000D03*
X137980000Y-132720000D03*
D16*
X131080000Y-139720000D03*
X139880000Y-139720000D03*
D15*
X89170000Y-106750000D03*
X91670000Y-106750000D03*
X94170000Y-106750000D03*
D16*
X87270000Y-113750000D03*
X96070000Y-113750000D03*
D13*
X122500000Y-75040000D03*
D14*
X122500000Y-72500000D03*
X122500000Y-69960000D03*
X122500000Y-67420000D03*
D17*
X92500000Y-77500000D02*
X92500000Y-74887600D01*
X92500000Y-74887600D02*
X102347600Y-65040000D01*
X102347600Y-65040000D02*
X102500000Y-65040000D01*
X91000000Y-65000000D02*
X91000000Y-59790000D01*
X91000000Y-59790000D02*
X91010000Y-59780000D01*
X134990000Y-85780000D02*
X134990000Y-87490000D01*
X134990000Y-87490000D02*
X137500000Y-90000000D01*
X137500000Y-90000000D02*
X140000000Y-90000000D01*
X140000000Y-90000000D02*
X142500000Y-87500000D01*
X142500000Y-87500000D02*
X142500000Y-77500000D01*
X142500000Y-77500000D02*
X127500000Y-62500000D01*
X127500000Y-62500000D02*
X114949036Y-62500000D01*
X112409036Y-59960000D02*
X102500000Y-59960000D01*
X114949036Y-62500000D02*
X112409036Y-59960000D01*
X102500000Y-59960000D02*
X98478000Y-59960000D01*
X98478000Y-59960000D02*
X95000000Y-63438000D01*
X95000000Y-63438000D02*
X95000000Y-65000000D01*
X91670000Y-106750000D02*
X91670000Y-101630000D01*
X91670000Y-101630000D02*
X93300000Y-100000000D01*
X93300000Y-100000000D02*
X93500000Y-100000000D01*
X97500000Y-100000000D02*
X102760000Y-100000000D01*
X102760000Y-100000000D02*
X135480000Y-132720000D01*
X112500000Y-64960000D02*
X112347600Y-64960000D01*
X112347600Y-64960000D02*
X97500000Y-79807600D01*
X97500000Y-79807600D02*
X97500000Y-98438000D01*
X97500000Y-98438000D02*
X97500000Y-100000000D01*
X132490000Y-85780000D02*
X122500000Y-75790000D01*
X122500000Y-75790000D02*
X122500000Y-75040000D01*
G36*
X91944758Y-40353353D02*
X92982929Y-40867277D01*
X111741618Y-51691430D01*
X111338701Y-52869260D01*
X111338699Y-52869263D01*
X111338699Y-52869266D01*
X111338505Y-52869832D01*
X111307253Y-53102961D01*
X111275922Y-53335812D01*
X111275959Y-53336408D01*
X111275959Y-53336411D01*
X111275960Y-53336414D01*
X111416790Y-55583320D01*
X111416789Y-55583325D01*
X111537331Y-56038384D01*
X112527562Y-58060906D01*
X112527563Y-58060908D01*
X112588973Y-58141413D01*
X112813072Y-58435198D01*
X112813075Y-58435200D01*
X112931895Y-58540003D01*
X112409036Y-58436000D01*
X103956254Y-58436000D01*
X103462590Y-58106143D01*
X102694697Y-57953400D01*
X102305303Y-57953400D01*
X101537410Y-58106143D01*
X101043746Y-58436000D01*
X98478005Y-58436000D01*
X98478000Y-58435999D01*
X97894791Y-58552007D01*
X97400369Y-58882369D01*
X93922369Y-62360369D01*
X93592008Y-62854790D01*
X93535096Y-63140906D01*
X93187406Y-63364638D01*
X92998560Y-63641023D01*
X92835362Y-63387406D01*
X92524000Y-63174661D01*
X92524000Y-60943412D01*
X92542914Y-60924532D01*
X92579829Y-61168304D01*
X93181915Y-61418587D01*
X93833949Y-61419409D01*
X94436665Y-61170647D01*
X94440171Y-61168304D01*
X94488613Y-60848416D01*
X93510000Y-59869803D01*
X93495858Y-59883945D01*
X93406055Y-59794142D01*
X93420197Y-59780000D01*
X93599803Y-59780000D01*
X94578416Y-60758613D01*
X94898304Y-60710171D01*
X95148587Y-60108085D01*
X95149409Y-59456051D01*
X94900647Y-58853335D01*
X94898304Y-58849829D01*
X94578416Y-58801387D01*
X93599803Y-59780000D01*
X93420197Y-59780000D01*
X93406055Y-59765858D01*
X93495858Y-59676055D01*
X93510000Y-59690197D01*
X94488613Y-58711584D01*
X94440171Y-58391696D01*
X93838085Y-58141413D01*
X93186051Y-58140591D01*
X92583335Y-58389353D01*
X92579829Y-58391696D01*
X92542824Y-58636057D01*
X92083698Y-58176129D01*
X91388193Y-57887329D01*
X90635111Y-57886672D01*
X89939103Y-58174257D01*
X89760154Y-58352894D01*
X89583698Y-58176129D01*
X88888193Y-57887329D01*
X88135111Y-57886672D01*
X87439103Y-58174257D01*
X86906129Y-58706302D01*
X86617329Y-59401807D01*
X86616672Y-60154889D01*
X86904257Y-60850897D01*
X87436302Y-61383871D01*
X88131807Y-61672671D01*
X88884889Y-61673328D01*
X89476000Y-61429086D01*
X89476000Y-63178933D01*
X89187406Y-63364638D01*
X88926424Y-63746597D01*
X88834608Y-64200000D01*
X88834608Y-65800000D01*
X88914308Y-66223570D01*
X89164638Y-66612594D01*
X89546597Y-66873576D01*
X90000000Y-66965392D01*
X92000000Y-66965392D01*
X92423570Y-66885692D01*
X92812594Y-66635362D01*
X93001440Y-66358977D01*
X93164638Y-66612594D01*
X93546597Y-66873576D01*
X94000000Y-66965392D01*
X96000000Y-66965392D01*
X96423570Y-66885692D01*
X96812594Y-66635362D01*
X97073576Y-66253403D01*
X97165392Y-65800000D01*
X97165392Y-64200000D01*
X97085692Y-63776430D01*
X96980424Y-63612838D01*
X99109262Y-61484000D01*
X100953366Y-61484000D01*
X100704109Y-61887975D01*
X100627648Y-62163295D01*
X100818568Y-62436500D01*
X102436500Y-62436500D01*
X102436500Y-62416500D01*
X102563500Y-62416500D01*
X102563500Y-62436500D01*
X104181432Y-62436500D01*
X104372352Y-62163295D01*
X104295891Y-61887975D01*
X104046634Y-61484000D01*
X111777774Y-61484000D01*
X113384356Y-63090581D01*
X112694697Y-62953400D01*
X112305303Y-62953400D01*
X111537410Y-63106143D01*
X110886423Y-63541120D01*
X110451446Y-64192107D01*
X110325114Y-64827224D01*
X96422369Y-78729969D01*
X96092008Y-79224390D01*
X95976000Y-79807600D01*
X95976000Y-98178933D01*
X95687406Y-98364638D01*
X95498560Y-98641023D01*
X95335362Y-98387406D01*
X94953403Y-98126424D01*
X94500000Y-98034608D01*
X92500000Y-98034608D01*
X92076430Y-98114308D01*
X91687406Y-98364638D01*
X91426424Y-98746597D01*
X91334608Y-99200000D01*
X91334608Y-99810130D01*
X90592369Y-100552369D01*
X90262008Y-101046790D01*
X90146000Y-101630000D01*
X90146000Y-105596570D01*
X90137086Y-105605468D01*
X90100171Y-105361696D01*
X89498085Y-105111413D01*
X88846051Y-105110591D01*
X88243335Y-105359353D01*
X88239829Y-105361696D01*
X88191387Y-105681584D01*
X89170000Y-106660197D01*
X89184142Y-106646055D01*
X89273945Y-106735858D01*
X89259803Y-106750000D01*
X89273945Y-106764142D01*
X89184142Y-106853945D01*
X89170000Y-106839803D01*
X88191387Y-107818416D01*
X88239829Y-108138304D01*
X88841915Y-108388587D01*
X89493949Y-108389409D01*
X90096665Y-108140647D01*
X90100171Y-108138304D01*
X90137176Y-107893943D01*
X90596302Y-108353871D01*
X91291807Y-108642671D01*
X92044889Y-108643328D01*
X92740897Y-108355743D01*
X92919846Y-108177106D01*
X93096302Y-108353871D01*
X93791807Y-108642671D01*
X94544889Y-108643328D01*
X95240897Y-108355743D01*
X95773871Y-107823698D01*
X96062671Y-107128193D01*
X96063328Y-106375111D01*
X95775743Y-105679103D01*
X95243698Y-105146129D01*
X94548193Y-104857329D01*
X93795111Y-104856672D01*
X93194000Y-105105046D01*
X93194000Y-102261262D01*
X93489870Y-101965392D01*
X94500000Y-101965392D01*
X94923570Y-101885692D01*
X95312594Y-101635362D01*
X95501440Y-101358977D01*
X95664638Y-101612594D01*
X96046597Y-101873576D01*
X96500000Y-101965392D01*
X98500000Y-101965392D01*
X98923570Y-101885692D01*
X99312594Y-101635362D01*
X99388685Y-101524000D01*
X102128738Y-101524000D01*
X132034916Y-131430178D01*
X132001387Y-131651584D01*
X132980000Y-132630197D01*
X132994142Y-132616055D01*
X133083945Y-132705858D01*
X133069803Y-132720000D01*
X133083945Y-132734142D01*
X132994142Y-132823945D01*
X132980000Y-132809803D01*
X132001387Y-133788416D01*
X132049829Y-134108304D01*
X132651915Y-134358587D01*
X133303949Y-134359409D01*
X133906665Y-134110647D01*
X133910171Y-134108304D01*
X133947176Y-133863943D01*
X134406302Y-134323871D01*
X135101807Y-134612671D01*
X135854889Y-134613328D01*
X136550897Y-134325743D01*
X136729846Y-134147106D01*
X136906302Y-134323871D01*
X137601807Y-134612671D01*
X138354889Y-134613328D01*
X139050897Y-134325743D01*
X139583871Y-133793698D01*
X139872671Y-133098193D01*
X139873328Y-132345111D01*
X139585743Y-131649103D01*
X139053698Y-131116129D01*
X138358193Y-130827329D01*
X137605111Y-130826672D01*
X136909103Y-131114257D01*
X136730154Y-131292894D01*
X136553698Y-131116129D01*
X135858193Y-130827329D01*
X135742490Y-130827228D01*
X103837631Y-98922369D01*
X103574569Y-98746597D01*
X103343210Y-98592008D01*
X102760000Y-98476000D01*
X99392371Y-98476000D01*
X99335362Y-98387406D01*
X99024000Y-98174661D01*
X99024000Y-80438862D01*
X110326771Y-69136091D01*
X110318608Y-69176400D01*
X110318608Y-70903600D01*
X110398308Y-71327170D01*
X110648638Y-71716194D01*
X111030597Y-71977176D01*
X111484000Y-72068992D01*
X113516000Y-72068992D01*
X113939570Y-71989292D01*
X114328594Y-71738962D01*
X114589576Y-71357003D01*
X114681392Y-70903600D01*
X114681392Y-69176400D01*
X114601692Y-68752830D01*
X114351362Y-68363806D01*
X114203061Y-68262476D01*
X114295891Y-68112025D01*
X114372352Y-67836705D01*
X114181432Y-67563500D01*
X112563500Y-67563500D01*
X112563500Y-67583500D01*
X112436500Y-67583500D01*
X112436500Y-67563500D01*
X112416500Y-67563500D01*
X112416500Y-67436500D01*
X112436500Y-67436500D01*
X112436500Y-67416500D01*
X112563500Y-67416500D01*
X112563500Y-67436500D01*
X114181432Y-67436500D01*
X114192962Y-67420000D01*
X120298703Y-67420000D01*
X120451446Y-68187893D01*
X120786944Y-68690000D01*
X120451446Y-69192107D01*
X120298703Y-69960000D01*
X120451446Y-70727893D01*
X120886423Y-71378880D01*
X120979749Y-71441239D01*
X120704109Y-71887975D01*
X120627648Y-72163295D01*
X120818568Y-72436500D01*
X122436500Y-72436500D01*
X122436500Y-72416500D01*
X122563500Y-72416500D01*
X122563500Y-72436500D01*
X124181432Y-72436500D01*
X124372352Y-72163295D01*
X124295891Y-71887975D01*
X124020251Y-71441239D01*
X124113577Y-71378880D01*
X124548554Y-70727893D01*
X124701297Y-69960000D01*
X124548554Y-69192107D01*
X124213056Y-68690000D01*
X124548554Y-68187893D01*
X124701297Y-67420000D01*
X124548554Y-66652107D01*
X124113577Y-66001120D01*
X123462590Y-65566143D01*
X122694697Y-65413400D01*
X122305303Y-65413400D01*
X121537410Y-65566143D01*
X120886423Y-66001120D01*
X120451446Y-66652107D01*
X120298703Y-67420000D01*
X114192962Y-67420000D01*
X114372352Y-67163295D01*
X114295891Y-66887975D01*
X114020251Y-66441239D01*
X114113577Y-66378880D01*
X114548554Y-65727893D01*
X114701297Y-64960000D01*
X114548554Y-64192107D01*
X114352977Y-63899407D01*
X114365826Y-63907992D01*
X114949036Y-64024000D01*
X126868738Y-64024000D01*
X139381730Y-76536992D01*
X138945797Y-76536611D01*
X138121102Y-76877368D01*
X137489586Y-77507784D01*
X137147390Y-78331882D01*
X137146611Y-79224203D01*
X137487368Y-80048898D01*
X138117784Y-80680414D01*
X138941882Y-81022610D01*
X139834203Y-81023389D01*
X140658898Y-80682632D01*
X140976000Y-80366082D01*
X140976000Y-86868738D01*
X139368738Y-88476000D01*
X138131262Y-88476000D01*
X137011196Y-87355934D01*
X137161915Y-87418587D01*
X137813949Y-87419409D01*
X138416665Y-87170647D01*
X138420171Y-87168304D01*
X138468613Y-86848416D01*
X137490000Y-85869803D01*
X137475858Y-85883945D01*
X137386055Y-85794142D01*
X137400197Y-85780000D01*
X137579803Y-85780000D01*
X138558416Y-86758613D01*
X138878304Y-86710171D01*
X139128587Y-86108085D01*
X139129409Y-85456051D01*
X138880647Y-84853335D01*
X138878304Y-84849829D01*
X138558416Y-84801387D01*
X137579803Y-85780000D01*
X137400197Y-85780000D01*
X137386055Y-85765858D01*
X137475858Y-85676055D01*
X137490000Y-85690197D01*
X138468613Y-84711584D01*
X138420171Y-84391696D01*
X137818085Y-84141413D01*
X137166051Y-84140591D01*
X136563335Y-84389353D01*
X136559829Y-84391696D01*
X136522824Y-84636057D01*
X136063698Y-84176129D01*
X135368193Y-83887329D01*
X134615111Y-83886672D01*
X133919103Y-84174257D01*
X133740154Y-84352894D01*
X133563698Y-84176129D01*
X132868193Y-83887329D01*
X132752489Y-83887228D01*
X129707500Y-80842238D01*
X130141882Y-81022610D01*
X131034203Y-81023389D01*
X131858898Y-80682632D01*
X132490414Y-80052216D01*
X132832610Y-79228118D01*
X132833389Y-78335797D01*
X132492632Y-77511102D01*
X131862216Y-76879586D01*
X131038118Y-76537390D01*
X130145797Y-76536611D01*
X129321102Y-76877368D01*
X128689586Y-77507784D01*
X128347390Y-78331882D01*
X128346611Y-79224203D01*
X128527676Y-79662415D01*
X124681392Y-75816130D01*
X124681392Y-74176400D01*
X124601692Y-73752830D01*
X124351362Y-73363806D01*
X124203061Y-73262476D01*
X124295891Y-73112025D01*
X124372352Y-72836705D01*
X124181432Y-72563500D01*
X122563500Y-72563500D01*
X122563500Y-72583500D01*
X122436500Y-72583500D01*
X122436500Y-72563500D01*
X120818568Y-72563500D01*
X120627648Y-72836705D01*
X120704109Y-73112025D01*
X120795960Y-73260890D01*
X120671406Y-73341038D01*
X120410424Y-73722997D01*
X120318608Y-74176400D01*
X120318608Y-75903600D01*
X120398308Y-76327170D01*
X120648638Y-76716194D01*
X121030597Y-76977176D01*
X121484000Y-77068992D01*
X121623730Y-77068992D01*
X130596770Y-86042032D01*
X130596672Y-86154889D01*
X130884257Y-86850897D01*
X131416302Y-87383871D01*
X132111807Y-87672671D01*
X132864889Y-87673328D01*
X133466000Y-87424954D01*
X133466000Y-87490000D01*
X133582008Y-88073210D01*
X133588690Y-88083210D01*
X133912369Y-88567631D01*
X136422369Y-91077631D01*
X136916790Y-91407992D01*
X137500000Y-91524000D01*
X140000000Y-91524000D01*
X140583210Y-91407992D01*
X141077631Y-91077631D01*
X143577631Y-88577631D01*
X143907993Y-88083209D01*
X144024000Y-87500000D01*
X144024000Y-77500000D01*
X143907992Y-76916790D01*
X143577631Y-76422369D01*
X143577628Y-76422367D01*
X128595049Y-61439787D01*
X142289252Y-69337100D01*
X144960390Y-71670281D01*
X146503711Y-74784265D01*
X146814035Y-77123505D01*
X146814035Y-143924998D01*
X146122832Y-147399905D01*
X144221765Y-150245055D01*
X141376616Y-152146122D01*
X138020535Y-152813689D01*
X134585777Y-152130472D01*
X133571731Y-151628491D01*
X113715024Y-140164203D01*
X128836611Y-140164203D01*
X129177368Y-140988898D01*
X129807784Y-141620414D01*
X130631882Y-141962610D01*
X131524203Y-141963389D01*
X132348898Y-141622632D01*
X132980414Y-140992216D01*
X133322610Y-140168118D01*
X133322613Y-140164203D01*
X137636611Y-140164203D01*
X137977368Y-140988898D01*
X138607784Y-141620414D01*
X139431882Y-141962610D01*
X140324203Y-141963389D01*
X141148898Y-141622632D01*
X141780414Y-140992216D01*
X142122610Y-140168118D01*
X142123389Y-139275797D01*
X141782632Y-138451102D01*
X141152216Y-137819586D01*
X140328118Y-137477390D01*
X139435797Y-137476611D01*
X138611102Y-137817368D01*
X137979586Y-138447784D01*
X137637390Y-139271882D01*
X137636611Y-140164203D01*
X133322613Y-140164203D01*
X133323389Y-139275797D01*
X132982632Y-138451102D01*
X132352216Y-137819586D01*
X131528118Y-137477390D01*
X130635797Y-137476611D01*
X129811102Y-137817368D01*
X129179586Y-138447784D01*
X128837390Y-139271882D01*
X128836611Y-140164203D01*
X113715024Y-140164203D01*
X101382395Y-133043949D01*
X131340591Y-133043949D01*
X131589353Y-133646665D01*
X131591696Y-133650171D01*
X131911584Y-133698613D01*
X132890197Y-132720000D01*
X131911584Y-131741387D01*
X131591696Y-131789829D01*
X131341413Y-132391915D01*
X131340591Y-133043949D01*
X101382395Y-133043949D01*
X92432475Y-127876705D01*
X103127648Y-127876705D01*
X103204109Y-128152025D01*
X103563424Y-128734374D01*
X104118243Y-129134891D01*
X104784100Y-129292600D01*
X104936500Y-129292600D01*
X104936500Y-127603500D01*
X105063500Y-127603500D01*
X105063500Y-129292600D01*
X105215900Y-129292600D01*
X105881757Y-129134891D01*
X106436576Y-128734374D01*
X106795891Y-128152025D01*
X106872352Y-127876705D01*
X106681432Y-127603500D01*
X105063500Y-127603500D01*
X104936500Y-127603500D01*
X103318568Y-127603500D01*
X103127648Y-127876705D01*
X92432475Y-127876705D01*
X87449881Y-125000000D01*
X102798703Y-125000000D01*
X102951446Y-125767893D01*
X103386423Y-126418880D01*
X103479749Y-126481239D01*
X103204109Y-126927975D01*
X103127648Y-127203295D01*
X103318568Y-127476500D01*
X104936500Y-127476500D01*
X104936500Y-127456500D01*
X105063500Y-127456500D01*
X105063500Y-127476500D01*
X106681432Y-127476500D01*
X106872352Y-127203295D01*
X106795891Y-126927975D01*
X106520251Y-126481239D01*
X106613577Y-126418880D01*
X107048554Y-125767893D01*
X107201297Y-125000000D01*
X107048554Y-124232107D01*
X106915092Y-124032368D01*
X107089576Y-123777003D01*
X107181392Y-123323600D01*
X107181392Y-121596400D01*
X107101692Y-121172830D01*
X106851362Y-120783806D01*
X106469403Y-120522824D01*
X106016000Y-120431008D01*
X103984000Y-120431008D01*
X103560430Y-120510708D01*
X103171406Y-120761038D01*
X102910424Y-121142997D01*
X102818608Y-121596400D01*
X102818608Y-123323600D01*
X102898308Y-123747170D01*
X103083339Y-124034716D01*
X102951446Y-124232107D01*
X102798703Y-125000000D01*
X87449881Y-125000000D01*
X84243944Y-123149050D01*
X81570144Y-120813542D01*
X80026824Y-117699560D01*
X79716500Y-115360320D01*
X79716500Y-114194203D01*
X85026611Y-114194203D01*
X85367368Y-115018898D01*
X85997784Y-115650414D01*
X86821882Y-115992610D01*
X87714203Y-115993389D01*
X88538898Y-115652632D01*
X89170414Y-115022216D01*
X89512610Y-114198118D01*
X89512613Y-114194203D01*
X93826611Y-114194203D01*
X94167368Y-115018898D01*
X94797784Y-115650414D01*
X95621882Y-115992610D01*
X96514203Y-115993389D01*
X97338898Y-115652632D01*
X97970414Y-115022216D01*
X98312610Y-114198118D01*
X98313389Y-113305797D01*
X97972632Y-112481102D01*
X97342216Y-111849586D01*
X96518118Y-111507390D01*
X95625797Y-111506611D01*
X94801102Y-111847368D01*
X94169586Y-112477784D01*
X93827390Y-113301882D01*
X93826611Y-114194203D01*
X89512613Y-114194203D01*
X89513389Y-113305797D01*
X89172632Y-112481102D01*
X88542216Y-111849586D01*
X87718118Y-111507390D01*
X86825797Y-111506611D01*
X86001102Y-111847368D01*
X85369586Y-112477784D01*
X85027390Y-113301882D01*
X85026611Y-114194203D01*
X79716500Y-114194203D01*
X79716500Y-107073949D01*
X87530591Y-107073949D01*
X87779353Y-107676665D01*
X87781696Y-107680171D01*
X88101584Y-107728613D01*
X89080197Y-106750000D01*
X88101584Y-105771387D01*
X87781696Y-105819829D01*
X87531413Y-106421915D01*
X87530591Y-107073949D01*
X79716500Y-107073949D01*
X79716500Y-89021942D01*
X83506543Y-89021942D01*
X83908068Y-89993706D01*
X84650906Y-90737842D01*
X85621968Y-91141063D01*
X86673419Y-91141980D01*
X87645183Y-90740455D01*
X88389319Y-89997617D01*
X88792540Y-89026555D01*
X88793457Y-87975104D01*
X88391932Y-87003340D01*
X87649094Y-86259204D01*
X86678032Y-85855983D01*
X85626581Y-85855066D01*
X84654817Y-86256591D01*
X83910681Y-86999429D01*
X83507460Y-87970491D01*
X83506543Y-89021942D01*
X79716500Y-89021942D01*
X79716500Y-78023419D01*
X89856543Y-78023419D01*
X90258068Y-78995183D01*
X91000906Y-79739319D01*
X91971968Y-80142540D01*
X93023419Y-80143457D01*
X93995183Y-79741932D01*
X94739319Y-78999094D01*
X95142540Y-78028032D01*
X95143457Y-76976581D01*
X94741932Y-76004817D01*
X94140514Y-75402348D01*
X102473869Y-67068992D01*
X103516000Y-67068992D01*
X103939570Y-66989292D01*
X104328594Y-66738962D01*
X104589576Y-66357003D01*
X104681392Y-65903600D01*
X104681392Y-64176400D01*
X104601692Y-63752830D01*
X104351362Y-63363806D01*
X104203061Y-63262476D01*
X104295891Y-63112025D01*
X104372352Y-62836705D01*
X104181432Y-62563500D01*
X102563500Y-62563500D01*
X102563500Y-62583500D01*
X102436500Y-62583500D01*
X102436500Y-62563500D01*
X100818568Y-62563500D01*
X100627648Y-62836705D01*
X100704109Y-63112025D01*
X100795960Y-63260890D01*
X100671406Y-63341038D01*
X100410424Y-63722997D01*
X100318608Y-64176400D01*
X100318608Y-64913731D01*
X91422369Y-73809969D01*
X91092008Y-74304390D01*
X90976000Y-74887600D01*
X90976000Y-75286835D01*
X90260681Y-76000906D01*
X89857460Y-76971968D01*
X89856543Y-78023419D01*
X79716500Y-78023419D01*
X79716500Y-53224203D01*
X84366611Y-53224203D01*
X84707368Y-54048898D01*
X85337784Y-54680414D01*
X86161882Y-55022610D01*
X87054203Y-55023389D01*
X87878898Y-54682632D01*
X88510414Y-54052216D01*
X88852610Y-53228118D01*
X88852613Y-53224203D01*
X93166611Y-53224203D01*
X93507368Y-54048898D01*
X94137784Y-54680414D01*
X94961882Y-55022610D01*
X95854203Y-55023389D01*
X96678898Y-54682632D01*
X97310414Y-54052216D01*
X97652610Y-53228118D01*
X97653389Y-52335797D01*
X97312632Y-51511102D01*
X96682216Y-50879586D01*
X95858118Y-50537390D01*
X94965797Y-50536611D01*
X94141102Y-50877368D01*
X93509586Y-51507784D01*
X93167390Y-52331882D01*
X93166611Y-53224203D01*
X88852613Y-53224203D01*
X88853389Y-52335797D01*
X88512632Y-51511102D01*
X87882216Y-50879586D01*
X87058118Y-50537390D01*
X86165797Y-50536611D01*
X85341102Y-50877368D01*
X84709586Y-51507784D01*
X84367390Y-52331882D01*
X84366611Y-53224203D01*
X79716500Y-53224203D01*
X79716500Y-48558828D01*
X80407703Y-45083919D01*
X82308770Y-42238770D01*
X85153920Y-40337703D01*
X88510000Y-39670136D01*
X91944758Y-40353353D01*
X91944758Y-40353353D01*
G37*
X91944758Y-40353353D02*
X92982929Y-40867277D01*
X111741618Y-51691430D01*
X111338701Y-52869260D01*
X111338699Y-52869263D01*
X111338699Y-52869266D01*
X111338505Y-52869832D01*
X111307253Y-53102961D01*
X111275922Y-53335812D01*
X111275959Y-53336408D01*
X111275959Y-53336411D01*
X111275960Y-53336414D01*
X111416790Y-55583320D01*
X111416789Y-55583325D01*
X111537331Y-56038384D01*
X112527562Y-58060906D01*
X112527563Y-58060908D01*
X112588973Y-58141413D01*
X112813072Y-58435198D01*
X112813075Y-58435200D01*
X112931895Y-58540003D01*
X112409036Y-58436000D01*
X103956254Y-58436000D01*
X103462590Y-58106143D01*
X102694697Y-57953400D01*
X102305303Y-57953400D01*
X101537410Y-58106143D01*
X101043746Y-58436000D01*
X98478005Y-58436000D01*
X98478000Y-58435999D01*
X97894791Y-58552007D01*
X97400369Y-58882369D01*
X93922369Y-62360369D01*
X93592008Y-62854790D01*
X93535096Y-63140906D01*
X93187406Y-63364638D01*
X92998560Y-63641023D01*
X92835362Y-63387406D01*
X92524000Y-63174661D01*
X92524000Y-60943412D01*
X92542914Y-60924532D01*
X92579829Y-61168304D01*
X93181915Y-61418587D01*
X93833949Y-61419409D01*
X94436665Y-61170647D01*
X94440171Y-61168304D01*
X94488613Y-60848416D01*
X93510000Y-59869803D01*
X93495858Y-59883945D01*
X93406055Y-59794142D01*
X93420197Y-59780000D01*
X93599803Y-59780000D01*
X94578416Y-60758613D01*
X94898304Y-60710171D01*
X95148587Y-60108085D01*
X95149409Y-59456051D01*
X94900647Y-58853335D01*
X94898304Y-58849829D01*
X94578416Y-58801387D01*
X93599803Y-59780000D01*
X93420197Y-59780000D01*
X93406055Y-59765858D01*
X93495858Y-59676055D01*
X93510000Y-59690197D01*
X94488613Y-58711584D01*
X94440171Y-58391696D01*
X93838085Y-58141413D01*
X93186051Y-58140591D01*
X92583335Y-58389353D01*
X92579829Y-58391696D01*
X92542824Y-58636057D01*
X92083698Y-58176129D01*
X91388193Y-57887329D01*
X90635111Y-57886672D01*
X89939103Y-58174257D01*
X89760154Y-58352894D01*
X89583698Y-58176129D01*
X88888193Y-57887329D01*
X88135111Y-57886672D01*
X87439103Y-58174257D01*
X86906129Y-58706302D01*
X86617329Y-59401807D01*
X86616672Y-60154889D01*
X86904257Y-60850897D01*
X87436302Y-61383871D01*
X88131807Y-61672671D01*
X88884889Y-61673328D01*
X89476000Y-61429086D01*
X89476000Y-63178933D01*
X89187406Y-63364638D01*
X88926424Y-63746597D01*
X88834608Y-64200000D01*
X88834608Y-65800000D01*
X88914308Y-66223570D01*
X89164638Y-66612594D01*
X89546597Y-66873576D01*
X90000000Y-66965392D01*
X92000000Y-66965392D01*
X92423570Y-66885692D01*
X92812594Y-66635362D01*
X93001440Y-66358977D01*
X93164638Y-66612594D01*
X93546597Y-66873576D01*
X94000000Y-66965392D01*
X96000000Y-66965392D01*
X96423570Y-66885692D01*
X96812594Y-66635362D01*
X97073576Y-66253403D01*
X97165392Y-65800000D01*
X97165392Y-64200000D01*
X97085692Y-63776430D01*
X96980424Y-63612838D01*
X99109262Y-61484000D01*
X100953366Y-61484000D01*
X100704109Y-61887975D01*
X100627648Y-62163295D01*
X100818568Y-62436500D01*
X102436500Y-62436500D01*
X102436500Y-62416500D01*
X102563500Y-62416500D01*
X102563500Y-62436500D01*
X104181432Y-62436500D01*
X104372352Y-62163295D01*
X104295891Y-61887975D01*
X104046634Y-61484000D01*
X111777774Y-61484000D01*
X113384356Y-63090581D01*
X112694697Y-62953400D01*
X112305303Y-62953400D01*
X111537410Y-63106143D01*
X110886423Y-63541120D01*
X110451446Y-64192107D01*
X110325114Y-64827224D01*
X96422369Y-78729969D01*
X96092008Y-79224390D01*
X95976000Y-79807600D01*
X95976000Y-98178933D01*
X95687406Y-98364638D01*
X95498560Y-98641023D01*
X95335362Y-98387406D01*
X94953403Y-98126424D01*
X94500000Y-98034608D01*
X92500000Y-98034608D01*
X92076430Y-98114308D01*
X91687406Y-98364638D01*
X91426424Y-98746597D01*
X91334608Y-99200000D01*
X91334608Y-99810130D01*
X90592369Y-100552369D01*
X90262008Y-101046790D01*
X90146000Y-101630000D01*
X90146000Y-105596570D01*
X90137086Y-105605468D01*
X90100171Y-105361696D01*
X89498085Y-105111413D01*
X88846051Y-105110591D01*
X88243335Y-105359353D01*
X88239829Y-105361696D01*
X88191387Y-105681584D01*
X89170000Y-106660197D01*
X89184142Y-106646055D01*
X89273945Y-106735858D01*
X89259803Y-106750000D01*
X89273945Y-106764142D01*
X89184142Y-106853945D01*
X89170000Y-106839803D01*
X88191387Y-107818416D01*
X88239829Y-108138304D01*
X88841915Y-108388587D01*
X89493949Y-108389409D01*
X90096665Y-108140647D01*
X90100171Y-108138304D01*
X90137176Y-107893943D01*
X90596302Y-108353871D01*
X91291807Y-108642671D01*
X92044889Y-108643328D01*
X92740897Y-108355743D01*
X92919846Y-108177106D01*
X93096302Y-108353871D01*
X93791807Y-108642671D01*
X94544889Y-108643328D01*
X95240897Y-108355743D01*
X95773871Y-107823698D01*
X96062671Y-107128193D01*
X96063328Y-106375111D01*
X95775743Y-105679103D01*
X95243698Y-105146129D01*
X94548193Y-104857329D01*
X93795111Y-104856672D01*
X93194000Y-105105046D01*
X93194000Y-102261262D01*
X93489870Y-101965392D01*
X94500000Y-101965392D01*
X94923570Y-101885692D01*
X95312594Y-101635362D01*
X95501440Y-101358977D01*
X95664638Y-101612594D01*
X96046597Y-101873576D01*
X96500000Y-101965392D01*
X98500000Y-101965392D01*
X98923570Y-101885692D01*
X99312594Y-101635362D01*
X99388685Y-101524000D01*
X102128738Y-101524000D01*
X132034916Y-131430178D01*
X132001387Y-131651584D01*
X132980000Y-132630197D01*
X132994142Y-132616055D01*
X133083945Y-132705858D01*
X133069803Y-132720000D01*
X133083945Y-132734142D01*
X132994142Y-132823945D01*
X132980000Y-132809803D01*
X132001387Y-133788416D01*
X132049829Y-134108304D01*
X132651915Y-134358587D01*
X133303949Y-134359409D01*
X133906665Y-134110647D01*
X133910171Y-134108304D01*
X133947176Y-133863943D01*
X134406302Y-134323871D01*
X135101807Y-134612671D01*
X135854889Y-134613328D01*
X136550897Y-134325743D01*
X136729846Y-134147106D01*
X136906302Y-134323871D01*
X137601807Y-134612671D01*
X138354889Y-134613328D01*
X139050897Y-134325743D01*
X139583871Y-133793698D01*
X139872671Y-133098193D01*
X139873328Y-132345111D01*
X139585743Y-131649103D01*
X139053698Y-131116129D01*
X138358193Y-130827329D01*
X137605111Y-130826672D01*
X136909103Y-131114257D01*
X136730154Y-131292894D01*
X136553698Y-131116129D01*
X135858193Y-130827329D01*
X135742490Y-130827228D01*
X103837631Y-98922369D01*
X103574569Y-98746597D01*
X103343210Y-98592008D01*
X102760000Y-98476000D01*
X99392371Y-98476000D01*
X99335362Y-98387406D01*
X99024000Y-98174661D01*
X99024000Y-80438862D01*
X110326771Y-69136091D01*
X110318608Y-69176400D01*
X110318608Y-70903600D01*
X110398308Y-71327170D01*
X110648638Y-71716194D01*
X111030597Y-71977176D01*
X111484000Y-72068992D01*
X113516000Y-72068992D01*
X113939570Y-71989292D01*
X114328594Y-71738962D01*
X114589576Y-71357003D01*
X114681392Y-70903600D01*
X114681392Y-69176400D01*
X114601692Y-68752830D01*
X114351362Y-68363806D01*
X114203061Y-68262476D01*
X114295891Y-68112025D01*
X114372352Y-67836705D01*
X114181432Y-67563500D01*
X112563500Y-67563500D01*
X112563500Y-67583500D01*
X112436500Y-67583500D01*
X112436500Y-67563500D01*
X112416500Y-67563500D01*
X112416500Y-67436500D01*
X112436500Y-67436500D01*
X112436500Y-67416500D01*
X112563500Y-67416500D01*
X112563500Y-67436500D01*
X114181432Y-67436500D01*
X114192962Y-67420000D01*
X120298703Y-67420000D01*
X120451446Y-68187893D01*
X120786944Y-68690000D01*
X120451446Y-69192107D01*
X120298703Y-69960000D01*
X120451446Y-70727893D01*
X120886423Y-71378880D01*
X120979749Y-71441239D01*
X120704109Y-71887975D01*
X120627648Y-72163295D01*
X120818568Y-72436500D01*
X122436500Y-72436500D01*
X122436500Y-72416500D01*
X122563500Y-72416500D01*
X122563500Y-72436500D01*
X124181432Y-72436500D01*
X124372352Y-72163295D01*
X124295891Y-71887975D01*
X124020251Y-71441239D01*
X124113577Y-71378880D01*
X124548554Y-70727893D01*
X124701297Y-69960000D01*
X124548554Y-69192107D01*
X124213056Y-68690000D01*
X124548554Y-68187893D01*
X124701297Y-67420000D01*
X124548554Y-66652107D01*
X124113577Y-66001120D01*
X123462590Y-65566143D01*
X122694697Y-65413400D01*
X122305303Y-65413400D01*
X121537410Y-65566143D01*
X120886423Y-66001120D01*
X120451446Y-66652107D01*
X120298703Y-67420000D01*
X114192962Y-67420000D01*
X114372352Y-67163295D01*
X114295891Y-66887975D01*
X114020251Y-66441239D01*
X114113577Y-66378880D01*
X114548554Y-65727893D01*
X114701297Y-64960000D01*
X114548554Y-64192107D01*
X114352977Y-63899407D01*
X114365826Y-63907992D01*
X114949036Y-64024000D01*
X126868738Y-64024000D01*
X139381730Y-76536992D01*
X138945797Y-76536611D01*
X138121102Y-76877368D01*
X137489586Y-77507784D01*
X137147390Y-78331882D01*
X137146611Y-79224203D01*
X137487368Y-80048898D01*
X138117784Y-80680414D01*
X138941882Y-81022610D01*
X139834203Y-81023389D01*
X140658898Y-80682632D01*
X140976000Y-80366082D01*
X140976000Y-86868738D01*
X139368738Y-88476000D01*
X138131262Y-88476000D01*
X137011196Y-87355934D01*
X137161915Y-87418587D01*
X137813949Y-87419409D01*
X138416665Y-87170647D01*
X138420171Y-87168304D01*
X138468613Y-86848416D01*
X137490000Y-85869803D01*
X137475858Y-85883945D01*
X137386055Y-85794142D01*
X137400197Y-85780000D01*
X137579803Y-85780000D01*
X138558416Y-86758613D01*
X138878304Y-86710171D01*
X139128587Y-86108085D01*
X139129409Y-85456051D01*
X138880647Y-84853335D01*
X138878304Y-84849829D01*
X138558416Y-84801387D01*
X137579803Y-85780000D01*
X137400197Y-85780000D01*
X137386055Y-85765858D01*
X137475858Y-85676055D01*
X137490000Y-85690197D01*
X138468613Y-84711584D01*
X138420171Y-84391696D01*
X137818085Y-84141413D01*
X137166051Y-84140591D01*
X136563335Y-84389353D01*
X136559829Y-84391696D01*
X136522824Y-84636057D01*
X136063698Y-84176129D01*
X135368193Y-83887329D01*
X134615111Y-83886672D01*
X133919103Y-84174257D01*
X133740154Y-84352894D01*
X133563698Y-84176129D01*
X132868193Y-83887329D01*
X132752489Y-83887228D01*
X129707500Y-80842238D01*
X130141882Y-81022610D01*
X131034203Y-81023389D01*
X131858898Y-80682632D01*
X132490414Y-80052216D01*
X132832610Y-79228118D01*
X132833389Y-78335797D01*
X132492632Y-77511102D01*
X131862216Y-76879586D01*
X131038118Y-76537390D01*
X130145797Y-76536611D01*
X129321102Y-76877368D01*
X128689586Y-77507784D01*
X128347390Y-78331882D01*
X128346611Y-79224203D01*
X128527676Y-79662415D01*
X124681392Y-75816130D01*
X124681392Y-74176400D01*
X124601692Y-73752830D01*
X124351362Y-73363806D01*
X124203061Y-73262476D01*
X124295891Y-73112025D01*
X124372352Y-72836705D01*
X124181432Y-72563500D01*
X122563500Y-72563500D01*
X122563500Y-72583500D01*
X122436500Y-72583500D01*
X122436500Y-72563500D01*
X120818568Y-72563500D01*
X120627648Y-72836705D01*
X120704109Y-73112025D01*
X120795960Y-73260890D01*
X120671406Y-73341038D01*
X120410424Y-73722997D01*
X120318608Y-74176400D01*
X120318608Y-75903600D01*
X120398308Y-76327170D01*
X120648638Y-76716194D01*
X121030597Y-76977176D01*
X121484000Y-77068992D01*
X121623730Y-77068992D01*
X130596770Y-86042032D01*
X130596672Y-86154889D01*
X130884257Y-86850897D01*
X131416302Y-87383871D01*
X132111807Y-87672671D01*
X132864889Y-87673328D01*
X133466000Y-87424954D01*
X133466000Y-87490000D01*
X133582008Y-88073210D01*
X133588690Y-88083210D01*
X133912369Y-88567631D01*
X136422369Y-91077631D01*
X136916790Y-91407992D01*
X137500000Y-91524000D01*
X140000000Y-91524000D01*
X140583210Y-91407992D01*
X141077631Y-91077631D01*
X143577631Y-88577631D01*
X143907993Y-88083209D01*
X144024000Y-87500000D01*
X144024000Y-77500000D01*
X143907992Y-76916790D01*
X143577631Y-76422369D01*
X143577628Y-76422367D01*
X128595049Y-61439787D01*
X142289252Y-69337100D01*
X144960390Y-71670281D01*
X146503711Y-74784265D01*
X146814035Y-77123505D01*
X146814035Y-143924998D01*
X146122832Y-147399905D01*
X144221765Y-150245055D01*
X141376616Y-152146122D01*
X138020535Y-152813689D01*
X134585777Y-152130472D01*
X133571731Y-151628491D01*
X113715024Y-140164203D01*
X128836611Y-140164203D01*
X129177368Y-140988898D01*
X129807784Y-141620414D01*
X130631882Y-141962610D01*
X131524203Y-141963389D01*
X132348898Y-141622632D01*
X132980414Y-140992216D01*
X133322610Y-140168118D01*
X133322613Y-140164203D01*
X137636611Y-140164203D01*
X137977368Y-140988898D01*
X138607784Y-141620414D01*
X139431882Y-141962610D01*
X140324203Y-141963389D01*
X141148898Y-141622632D01*
X141780414Y-140992216D01*
X142122610Y-140168118D01*
X142123389Y-139275797D01*
X141782632Y-138451102D01*
X141152216Y-137819586D01*
X140328118Y-137477390D01*
X139435797Y-137476611D01*
X138611102Y-137817368D01*
X137979586Y-138447784D01*
X137637390Y-139271882D01*
X137636611Y-140164203D01*
X133322613Y-140164203D01*
X133323389Y-139275797D01*
X132982632Y-138451102D01*
X132352216Y-137819586D01*
X131528118Y-137477390D01*
X130635797Y-137476611D01*
X129811102Y-137817368D01*
X129179586Y-138447784D01*
X128837390Y-139271882D01*
X128836611Y-140164203D01*
X113715024Y-140164203D01*
X101382395Y-133043949D01*
X131340591Y-133043949D01*
X131589353Y-133646665D01*
X131591696Y-133650171D01*
X131911584Y-133698613D01*
X132890197Y-132720000D01*
X131911584Y-131741387D01*
X131591696Y-131789829D01*
X131341413Y-132391915D01*
X131340591Y-133043949D01*
X101382395Y-133043949D01*
X92432475Y-127876705D01*
X103127648Y-127876705D01*
X103204109Y-128152025D01*
X103563424Y-128734374D01*
X104118243Y-129134891D01*
X104784100Y-129292600D01*
X104936500Y-129292600D01*
X104936500Y-127603500D01*
X105063500Y-127603500D01*
X105063500Y-129292600D01*
X105215900Y-129292600D01*
X105881757Y-129134891D01*
X106436576Y-128734374D01*
X106795891Y-128152025D01*
X106872352Y-127876705D01*
X106681432Y-127603500D01*
X105063500Y-127603500D01*
X104936500Y-127603500D01*
X103318568Y-127603500D01*
X103127648Y-127876705D01*
X92432475Y-127876705D01*
X87449881Y-125000000D01*
X102798703Y-125000000D01*
X102951446Y-125767893D01*
X103386423Y-126418880D01*
X103479749Y-126481239D01*
X103204109Y-126927975D01*
X103127648Y-127203295D01*
X103318568Y-127476500D01*
X104936500Y-127476500D01*
X104936500Y-127456500D01*
X105063500Y-127456500D01*
X105063500Y-127476500D01*
X106681432Y-127476500D01*
X106872352Y-127203295D01*
X106795891Y-126927975D01*
X106520251Y-126481239D01*
X106613577Y-126418880D01*
X107048554Y-125767893D01*
X107201297Y-125000000D01*
X107048554Y-124232107D01*
X106915092Y-124032368D01*
X107089576Y-123777003D01*
X107181392Y-123323600D01*
X107181392Y-121596400D01*
X107101692Y-121172830D01*
X106851362Y-120783806D01*
X106469403Y-120522824D01*
X106016000Y-120431008D01*
X103984000Y-120431008D01*
X103560430Y-120510708D01*
X103171406Y-120761038D01*
X102910424Y-121142997D01*
X102818608Y-121596400D01*
X102818608Y-123323600D01*
X102898308Y-123747170D01*
X103083339Y-124034716D01*
X102951446Y-124232107D01*
X102798703Y-125000000D01*
X87449881Y-125000000D01*
X84243944Y-123149050D01*
X81570144Y-120813542D01*
X80026824Y-117699560D01*
X79716500Y-115360320D01*
X79716500Y-114194203D01*
X85026611Y-114194203D01*
X85367368Y-115018898D01*
X85997784Y-115650414D01*
X86821882Y-115992610D01*
X87714203Y-115993389D01*
X88538898Y-115652632D01*
X89170414Y-115022216D01*
X89512610Y-114198118D01*
X89512613Y-114194203D01*
X93826611Y-114194203D01*
X94167368Y-115018898D01*
X94797784Y-115650414D01*
X95621882Y-115992610D01*
X96514203Y-115993389D01*
X97338898Y-115652632D01*
X97970414Y-115022216D01*
X98312610Y-114198118D01*
X98313389Y-113305797D01*
X97972632Y-112481102D01*
X97342216Y-111849586D01*
X96518118Y-111507390D01*
X95625797Y-111506611D01*
X94801102Y-111847368D01*
X94169586Y-112477784D01*
X93827390Y-113301882D01*
X93826611Y-114194203D01*
X89512613Y-114194203D01*
X89513389Y-113305797D01*
X89172632Y-112481102D01*
X88542216Y-111849586D01*
X87718118Y-111507390D01*
X86825797Y-111506611D01*
X86001102Y-111847368D01*
X85369586Y-112477784D01*
X85027390Y-113301882D01*
X85026611Y-114194203D01*
X79716500Y-114194203D01*
X79716500Y-107073949D01*
X87530591Y-107073949D01*
X87779353Y-107676665D01*
X87781696Y-107680171D01*
X88101584Y-107728613D01*
X89080197Y-106750000D01*
X88101584Y-105771387D01*
X87781696Y-105819829D01*
X87531413Y-106421915D01*
X87530591Y-107073949D01*
X79716500Y-107073949D01*
X79716500Y-89021942D01*
X83506543Y-89021942D01*
X83908068Y-89993706D01*
X84650906Y-90737842D01*
X85621968Y-91141063D01*
X86673419Y-91141980D01*
X87645183Y-90740455D01*
X88389319Y-89997617D01*
X88792540Y-89026555D01*
X88793457Y-87975104D01*
X88391932Y-87003340D01*
X87649094Y-86259204D01*
X86678032Y-85855983D01*
X85626581Y-85855066D01*
X84654817Y-86256591D01*
X83910681Y-86999429D01*
X83507460Y-87970491D01*
X83506543Y-89021942D01*
X79716500Y-89021942D01*
X79716500Y-78023419D01*
X89856543Y-78023419D01*
X90258068Y-78995183D01*
X91000906Y-79739319D01*
X91971968Y-80142540D01*
X93023419Y-80143457D01*
X93995183Y-79741932D01*
X94739319Y-78999094D01*
X95142540Y-78028032D01*
X95143457Y-76976581D01*
X94741932Y-76004817D01*
X94140514Y-75402348D01*
X102473869Y-67068992D01*
X103516000Y-67068992D01*
X103939570Y-66989292D01*
X104328594Y-66738962D01*
X104589576Y-66357003D01*
X104681392Y-65903600D01*
X104681392Y-64176400D01*
X104601692Y-63752830D01*
X104351362Y-63363806D01*
X104203061Y-63262476D01*
X104295891Y-63112025D01*
X104372352Y-62836705D01*
X104181432Y-62563500D01*
X102563500Y-62563500D01*
X102563500Y-62583500D01*
X102436500Y-62583500D01*
X102436500Y-62563500D01*
X100818568Y-62563500D01*
X100627648Y-62836705D01*
X100704109Y-63112025D01*
X100795960Y-63260890D01*
X100671406Y-63341038D01*
X100410424Y-63722997D01*
X100318608Y-64176400D01*
X100318608Y-64913731D01*
X91422369Y-73809969D01*
X91092008Y-74304390D01*
X90976000Y-74887600D01*
X90976000Y-75286835D01*
X90260681Y-76000906D01*
X89857460Y-76971968D01*
X89856543Y-78023419D01*
X79716500Y-78023419D01*
X79716500Y-53224203D01*
X84366611Y-53224203D01*
X84707368Y-54048898D01*
X85337784Y-54680414D01*
X86161882Y-55022610D01*
X87054203Y-55023389D01*
X87878898Y-54682632D01*
X88510414Y-54052216D01*
X88852610Y-53228118D01*
X88852613Y-53224203D01*
X93166611Y-53224203D01*
X93507368Y-54048898D01*
X94137784Y-54680414D01*
X94961882Y-55022610D01*
X95854203Y-55023389D01*
X96678898Y-54682632D01*
X97310414Y-54052216D01*
X97652610Y-53228118D01*
X97653389Y-52335797D01*
X97312632Y-51511102D01*
X96682216Y-50879586D01*
X95858118Y-50537390D01*
X94965797Y-50536611D01*
X94141102Y-50877368D01*
X93509586Y-51507784D01*
X93167390Y-52331882D01*
X93166611Y-53224203D01*
X88852613Y-53224203D01*
X88853389Y-52335797D01*
X88512632Y-51511102D01*
X87882216Y-50879586D01*
X87058118Y-50537390D01*
X86165797Y-50536611D01*
X85341102Y-50877368D01*
X84709586Y-51507784D01*
X84367390Y-52331882D01*
X84366611Y-53224203D01*
X79716500Y-53224203D01*
X79716500Y-48558828D01*
X80407703Y-45083919D01*
X82308770Y-42238770D01*
X85153920Y-40337703D01*
X88510000Y-39670136D01*
X91944758Y-40353353D01*
M02*
